<?xml version="1.0" encoding="UTF-8"?>
<!DOCTYPE svg PUBLIC "-//W3C//DTD SVG 1.1//EN" "http://www.w3.org/Graphics/SVG/1.1/DTD/svg11.dtd">
<svg xmlns="http://www.w3.org/2000/svg" version="1.1" width="285px" height="310px" style="shape-rendering:geometricPrecision; text-rendering:geometricPrecision; image-rendering:optimizeQuality; fill-rule:evenodd; clip-rule:evenodd" xmlns:xlink="http://www.w3.org/1999/xlink">
<g><path style="opacity:1" fill="#fefefe" d="M -0.5,11.5 C 94.5,11.5 189.5,11.5 284.5,11.5C 284.5,106.5 284.5,201.5 284.5,296.5C 189.5,296.5 94.5,296.5 -0.5,296.5C -0.5,201.5 -0.5,106.5 -0.5,11.5 Z"/></g>
<g><path style="opacity:1" fill="#3d79ab" d="M 36.5,125.5 C 39.2542,126.641 41.9209,127.975 44.5,129.5C 32.716,124.819 21.8827,126.486 12,134.5C 10.3542,136.055 10.0209,137.721 11,139.5C 10.6667,139.167 10.3333,138.833 10,138.5C 8.87099,140.141 7.37099,141.141 5.5,141.5C 12.1964,129.538 22.5297,124.205 36.5,125.5 Z"/></g>
<g><path style="opacity:1" fill="#ddeff6" d="M 36.5,125.5 C 40.0914,125.442 43.2581,126.442 46,128.5C 49.0623,126.87 50.729,127.87 51,131.5C 53.5562,132.219 54.7229,133.886 54.5,136.5C 53.1667,135.5 51.8333,134.5 50.5,133.5C 48.8525,131.674 46.8525,130.34 44.5,129.5C 41.9209,127.975 39.2542,126.641 36.5,125.5 Z"/></g>
<g><path style="opacity:1" fill="#959595" d="M 187.5,138.5 C 190.687,137.194 194.02,137.194 197.5,138.5C 197.376,139.107 197.043,139.44 196.5,139.5C 193.713,138.523 190.713,138.19 187.5,138.5 Z"/></g>
<g><path style="opacity:1" fill="#939393" d="M 246.5,145.5 C 246.167,145.5 245.833,145.5 245.5,145.5C 247.948,144.527 250.615,144.194 253.5,144.5C 253.5,142.5 253.5,140.5 253.5,138.5C 245.5,138.5 237.5,138.5 229.5,138.5C 229.5,140.5 229.5,142.5 229.5,144.5C 232.385,144.194 235.052,144.527 237.5,145.5C 237.167,145.5 236.833,145.5 236.5,145.5C 233.833,145.5 231.167,145.5 228.5,145.5C 228.5,142.833 228.5,140.167 228.5,137.5C 237.167,137.5 245.833,137.5 254.5,137.5C 254.5,140.167 254.5,142.833 254.5,145.5C 251.833,145.5 249.167,145.5 246.5,145.5 Z"/></g>
<g><path style="opacity:1" fill="#add2e7" d="M 34.5,138.5 C 37.3854,138.194 40.0521,138.527 42.5,139.5C 33.5,139.5 24.5,139.5 15.5,139.5C 15.5,149.833 15.5,160.167 15.5,170.5C 17.5,170.5 19.5,170.5 21.5,170.5C 21.5,161.833 21.5,153.167 21.5,144.5C 28.1667,144.5 34.8333,144.5 41.5,144.5C 41.7947,146.735 41.4614,148.735 40.5,150.5C 40.5,148.833 40.5,147.167 40.5,145.5C 34.5,145.5 28.5,145.5 22.5,145.5C 22.5,154.167 22.5,162.833 22.5,171.5C 20.5,171.5 18.5,171.5 16.5,171.5C 14.523,160.884 13.8564,149.884 14.5,138.5C 21.1667,138.5 27.8333,138.5 34.5,138.5 Z"/></g>
<g><path style="opacity:1" fill="#616161" d="M 136.5,171.5 C 133.145,171.909 130.145,171.242 127.5,169.5C 127.586,168.504 127.252,167.671 126.5,167C 122.848,166.501 119.182,166.335 115.5,166.5C 115.371,168.216 115.038,169.883 114.5,171.5C 111.615,171.806 108.948,171.473 106.5,170.5C 109.696,160.079 113.196,149.746 117,139.5C 119.376,137.256 122.043,136.923 125,138.5C 128.867,149.551 132.701,160.551 136.5,171.5 Z"/></g>
<g><path style="opacity:1" fill="#2c73ae" d="M 50.5,133.5 C 51.8333,134.5 53.1667,135.5 54.5,136.5C 57.4671,140.729 59.4671,145.396 60.5,150.5C 61.0303,157.034 59.697,163.034 56.5,168.5C 58.2912,162.963 58.7912,157.296 58,151.5C 55.438,150.636 53.6047,148.969 52.5,146.5C 50.5188,147.105 50.1854,148.105 51.5,149.5C 51.0713,152.147 49.7379,154.147 47.5,155.5C 48.2421,156.287 49.0754,156.953 50,157.5C 53.1757,165.823 50.3424,170.49 41.5,171.5C 40.8333,171.5 40.1667,171.5 39.5,171.5C 39.5,171.167 39.5,170.833 39.5,170.5C 47.5869,170.568 50.7536,166.568 49,158.5C 47.1667,157.333 45.3333,156.167 43.5,155C 50.6812,150.909 51.3479,145.909 45.5,140C 44.552,139.517 43.552,139.351 42.5,139.5C 40.0521,138.527 37.3854,138.194 34.5,138.5C 36.1086,137.229 37.9419,136.229 40,135.5C 43.4512,137.594 46.9512,139.594 50.5,141.5C 51.4655,140.086 52.4655,139.253 53.5,139C 52.259,137.269 51.259,135.436 50.5,133.5 Z"/></g>
<g><path style="opacity:1" fill="#808080" d="M 79.5,138.5 C 76.8333,138.5 74.1667,138.5 71.5,138.5C 71.5,149.5 71.5,160.5 71.5,171.5C 73.8333,171.5 76.1667,171.5 78.5,171.5C 76.0521,172.473 73.3854,172.806 70.5,172.5C 70.5,160.833 70.5,149.167 70.5,137.5C 73.7131,137.19 76.7131,137.523 79.5,138.5 Z"/></g>
<g><path style="opacity:1" fill="#858585" d="M 93.5,138.5 C 96.2869,137.523 99.2869,137.19 102.5,137.5C 102.5,149.167 102.5,160.833 102.5,172.5C 99.6146,172.806 96.9479,172.473 94.5,171.5C 96.8333,171.5 99.1667,171.5 101.5,171.5C 101.5,160.5 101.5,149.5 101.5,138.5C 98.8333,138.5 96.1667,138.5 93.5,138.5 Z"/></g>
<g><path style="opacity:1" fill="#828282" d="M 224.5,138.5 C 217.167,138.5 209.833,138.5 202.5,138.5C 202.5,149.5 202.5,160.5 202.5,171.5C 202.167,171.5 201.833,171.5 201.5,171.5C 201.5,160.167 201.5,148.833 201.5,137.5C 209.352,137.175 217.018,137.508 224.5,138.5 Z"/></g>
<g><path style="opacity:1" fill="#5d5d5d" d="M 245.5,145.5 C 245.5,154.167 245.5,162.833 245.5,171.5C 242.833,171.5 240.167,171.5 237.5,171.5C 237.5,162.833 237.5,154.167 237.5,145.5C 235.052,144.527 232.385,144.194 229.5,144.5C 229.5,142.5 229.5,140.5 229.5,138.5C 237.5,138.5 245.5,138.5 253.5,138.5C 253.5,140.5 253.5,142.5 253.5,144.5C 250.615,144.194 247.948,144.527 245.5,145.5 Z"/></g>
<g><path style="opacity:1" fill="#bebebe" d="M 177.5,138.5 C 174.833,138.5 172.167,138.5 169.5,138.5C 169.5,149.5 169.5,160.5 169.5,171.5C 172.167,171.5 174.833,171.5 177.5,171.5C 174.713,172.477 171.713,172.81 168.5,172.5C 168.5,160.833 168.5,149.167 168.5,137.5C 171.713,137.19 174.713,137.523 177.5,138.5 Z"/></g>
<g><path style="opacity:1" fill="#5e5e5f" d="M 224.5,138.5 C 224.5,140.833 224.5,143.167 224.5,145.5C 219.833,145.5 215.167,145.5 210.5,145.5C 209.539,147.265 209.205,149.265 209.5,151.5C 213.833,151.5 218.167,151.5 222.5,151.5C 222.5,153.5 222.5,155.5 222.5,157.5C 218.167,157.5 213.833,157.5 209.5,157.5C 209.198,160.059 209.532,162.393 210.5,164.5C 215.167,164.5 219.833,164.5 224.5,164.5C 224.5,166.833 224.5,169.167 224.5,171.5C 217.167,171.5 209.833,171.5 202.5,171.5C 202.5,160.5 202.5,149.5 202.5,138.5C 209.833,138.5 217.167,138.5 224.5,138.5 Z"/></g>
<g><path style="opacity:1" fill="#5f5e5f" d="M 177.5,138.5 C 177.335,142.182 177.501,145.848 178,149.5C 181.032,145.641 184.198,141.974 187.5,138.5C 190.713,138.19 193.713,138.523 196.5,139.5C 192.637,143.201 189.304,147.368 186.5,152C 189.899,157.298 192.899,162.798 195.5,168.5C 195.414,169.496 195.748,170.329 196.5,171C 193.854,171.497 191.187,171.664 188.5,171.5C 186.109,167.063 183.443,162.73 180.5,158.5C 179.522,158.977 178.689,159.643 178,160.5C 177.501,164.152 177.335,167.818 177.5,171.5C 174.833,171.5 172.167,171.5 169.5,171.5C 169.5,160.5 169.5,149.5 169.5,138.5C 172.167,138.5 174.833,138.5 177.5,138.5 Z"/></g>
<g><path style="opacity:1" fill="#cecece" d="M 236.5,145.5 C 236.833,145.5 237.167,145.5 237.5,145.5C 237.5,154.167 237.5,162.833 237.5,171.5C 240.167,171.5 242.833,171.5 245.5,171.5C 245.5,162.833 245.5,154.167 245.5,145.5C 245.833,145.5 246.167,145.5 246.5,145.5C 246.5,154.5 246.5,163.5 246.5,172.5C 243.167,172.5 239.833,172.5 236.5,172.5C 236.5,163.5 236.5,154.5 236.5,145.5 Z"/></g>
<g><path style="opacity:1" fill="#5e5d5f" d="M 79.5,138.5 C 81.2995,143.432 83.6329,148.099 86.5,152.5C 88.8627,147.817 91.1961,143.15 93.5,138.5C 96.1667,138.5 98.8333,138.5 101.5,138.5C 101.5,149.5 101.5,160.5 101.5,171.5C 99.1667,171.5 96.8333,171.5 94.5,171.5C 94.6659,166.489 94.4993,161.489 94,156.5C 89,167.167 84,167.167 79,156.5C 78.5007,161.489 78.3341,166.489 78.5,171.5C 76.1667,171.5 73.8333,171.5 71.5,171.5C 71.5,160.5 71.5,149.5 71.5,138.5C 74.1667,138.5 76.8333,138.5 79.5,138.5 Z"/></g>
<g><path style="opacity:1" fill="#636363" d="M 163.5,169.5 C 161.365,171.369 158.698,172.036 155.5,171.5C 153.565,167.872 151.565,164.206 149.5,160.5C 145.893,159.511 142.226,159.177 138.5,159.5C 138.753,157.173 138.086,155.173 136.5,153.5C 142.138,152.67 147.804,152.17 153.5,152C 154.576,150.274 154.743,148.441 154,146.5C 147.256,145.521 140.422,145.188 133.5,145.5C 133.244,143.063 132.577,140.729 131.5,138.5C 139.479,137.335 147.479,137.168 155.5,138C 164.668,143.499 165.668,150.165 158.5,158C 159.889,162.016 161.556,165.849 163.5,169.5 Z"/></g>
<g><path style="opacity:1" fill="#b8b8b8" d="M 210.5,145.5 C 210.5,147.167 210.5,148.833 210.5,150.5C 214.702,150.183 218.702,150.517 222.5,151.5C 218.167,151.5 213.833,151.5 209.5,151.5C 209.205,149.265 209.539,147.265 210.5,145.5 Z"/></g>
<g><path style="opacity:1" fill="#e8e8e8" d="M 123.5,157.5 C 122.448,159.256 120.781,159.923 118.5,159.5C 119.038,156.347 120.038,153.347 121.5,150.5C 122.944,152.608 123.61,154.941 123.5,157.5 Z"/></g>
<g><path style="opacity:1" fill="#616161" d="M 263.5,137.5 C 266.85,137.335 270.183,137.502 273.5,138C 280.608,139.374 281.274,142.208 275.5,146.5C 272.792,144.564 269.792,144.064 266.5,145C 264.473,146.396 264.14,148.062 265.5,150C 270.996,150.274 275.83,152.107 280,155.5C 282.01,162.197 280.177,167.364 274.5,171C 269.5,171.667 264.5,171.667 259.5,171C 257.939,170.059 256.605,168.892 255.5,167.5C 256.833,165.5 258.5,163.833 260.5,162.5C 264.216,164.612 268.049,164.945 272,163.5C 272.72,161.888 272.554,160.388 271.5,159C 261.008,159.547 256.175,154.713 257,144.5C 258.694,141.642 260.861,139.309 263.5,137.5 Z"/></g>
<g><path style="opacity:1" fill="#f5fbfb" d="M 42.5,139.5 C 43.552,139.351 44.552,139.517 45.5,140C 51.3479,145.909 50.6812,150.909 43.5,155C 45.3333,156.167 47.1667,157.333 49,158.5C 50.7536,166.568 47.5869,170.568 39.5,170.5C 36.1667,170.5 32.8333,170.5 29.5,170.5C 29.5,168.5 29.5,166.5 29.5,164.5C 33.0419,164.813 36.3752,164.479 39.5,163.5C 40.4511,162.081 40.7845,160.415 40.5,158.5C 36.5,158.5 32.5,158.5 28.5,158.5C 28.5,156.167 28.5,153.833 28.5,151.5C 32.7016,151.817 36.7016,151.483 40.5,150.5C 41.4614,148.735 41.7947,146.735 41.5,144.5C 34.8333,144.5 28.1667,144.5 21.5,144.5C 21.5,153.167 21.5,161.833 21.5,170.5C 19.5,170.5 17.5,170.5 15.5,170.5C 15.5,160.167 15.5,149.833 15.5,139.5C 24.5,139.5 33.5,139.5 42.5,139.5 Z"/></g>
<g><path style="opacity:1" fill="#bbbbbb" d="M 222.5,157.5 C 218.702,158.483 214.702,158.817 210.5,158.5C 210.5,160.5 210.5,162.5 210.5,164.5C 209.532,162.393 209.198,160.059 209.5,157.5C 213.833,157.5 218.167,157.5 222.5,157.5 Z"/></g>
<g><path style="opacity:1" fill="#5f94bd" d="M 28.5,158.5 C 32.5,158.5 36.5,158.5 40.5,158.5C 40.7845,160.415 40.4511,162.081 39.5,163.5C 39.5,162.167 39.5,160.833 39.5,159.5C 35.6286,159.815 31.9619,159.482 28.5,158.5 Z"/></g>
<g><path style="opacity:1" fill="#aaaaaa" d="M 123.5,157.5 C 124.404,158.209 124.737,159.209 124.5,160.5C 122.265,160.795 120.265,160.461 118.5,159.5C 120.781,159.923 122.448,159.256 123.5,157.5 Z"/></g>
<g><path style="opacity:1" fill="#1b73ba" d="M 44.5,129.5 C 46.8525,130.34 48.8525,131.674 50.5,133.5C 51.259,135.436 52.259,137.269 53.5,139C 52.4655,139.253 51.4655,140.086 50.5,141.5C 46.9512,139.594 43.4512,137.594 40,135.5C 37.9419,136.229 36.1086,137.229 34.5,138.5C 27.8333,138.5 21.1667,138.5 14.5,138.5C 13.8564,149.884 14.523,160.884 16.5,171.5C 17.4734,173.3 18.4734,175.134 19.5,177C 18.3659,178.016 18.6992,178.683 20.5,179C 14.9563,178.031 10.9563,174.864 8.5,169.5C 9.2739,168.289 10.1072,168.289 11,169.5C 10.5771,167.613 10.7437,165.613 11.5,163.5C 9.85703,163.48 8.5237,164.147 7.5,165.5C 6.91395,165.291 6.41395,164.957 6,164.5C 5.25887,159.644 4.42554,154.811 3.5,150C 4.87125,147.681 5.53792,145.181 5.5,142.5C 5.5,142.167 5.5,141.833 5.5,141.5C 7.37099,141.141 8.87099,140.141 10,138.5C 10.3333,138.833 10.6667,139.167 11,139.5C 10.0209,137.721 10.3542,136.055 12,134.5C 21.8827,126.486 32.716,124.819 44.5,129.5 Z"/></g>
<g><path style="opacity:1" fill="#2874b4" d="M 5.5,142.5 C 5.53792,145.181 4.87125,147.681 3.5,150C 4.42554,154.811 5.25887,159.644 6,164.5C 6.41395,164.957 6.91395,165.291 7.5,165.5C 8.5237,164.147 9.85703,163.48 11.5,163.5C 10.7437,165.613 10.5771,167.613 11,169.5C 10.1072,168.289 9.2739,168.289 8.5,169.5C 10.9563,174.864 14.9563,178.031 20.5,179C 18.6992,178.683 18.3659,178.016 19.5,177C 18.4734,175.134 17.4734,173.3 16.5,171.5C 18.5,171.5 20.5,171.5 22.5,171.5C 22.5,162.833 22.5,154.167 22.5,145.5C 28.5,145.5 34.5,145.5 40.5,145.5C 40.5,147.167 40.5,148.833 40.5,150.5C 36.7016,151.483 32.7016,151.817 28.5,151.5C 28.5,153.833 28.5,156.167 28.5,158.5C 31.9619,159.482 35.6286,159.815 39.5,159.5C 39.5,160.833 39.5,162.167 39.5,163.5C 35.8333,163.5 32.1667,163.5 28.5,163.5C 28.5,166.167 28.5,168.833 28.5,171.5C 32.1667,171.5 35.8333,171.5 39.5,171.5C 40.1667,171.5 40.8333,171.5 41.5,171.5C 35.9374,174.088 29.9374,175.755 23.5,176.5C 26.3405,178.086 29.0072,179.92 31.5,182C 34.146,182.497 36.8127,182.664 39.5,182.5C 29.0077,186.077 19.5077,184.077 11,176.5C 3.18726,167.585 0.520592,157.252 3,145.5C 3.85175,144.429 4.68509,143.429 5.5,142.5 Z"/></g>
<g><path style="opacity:1" fill="#dbf0f7" d="M 60.5,150.5 C 61.6497,155.316 61.8163,160.316 61,165.5C 58.1705,170.479 54.8372,175.145 51,179.5C 49.6439,180.38 48.1439,180.714 46.5,180.5C 50.9271,177.407 54.2605,173.407 56.5,168.5C 59.697,163.034 61.0303,157.034 60.5,150.5 Z"/></g>
<g><path style="opacity:1" fill="#a0c8df" d="M 39.5,163.5 C 36.3752,164.479 33.0419,164.813 29.5,164.5C 29.5,166.5 29.5,168.5 29.5,170.5C 32.8333,170.5 36.1667,170.5 39.5,170.5C 39.5,170.833 39.5,171.167 39.5,171.5C 35.8333,171.5 32.1667,171.5 28.5,171.5C 28.5,168.833 28.5,166.167 28.5,163.5C 32.1667,163.5 35.8333,163.5 39.5,163.5 Z"/></g>
<g><path style="opacity:1" fill="#a5a5a5" d="M 106.5,170.5 C 108.948,171.473 111.615,171.806 114.5,171.5C 111.645,172.803 108.645,172.803 105.5,171.5C 105.624,170.893 105.957,170.56 106.5,170.5 Z"/></g>
<g><path style="opacity:1" fill="#a7a7a7" d="M 127.5,169.5 C 130.145,171.242 133.145,171.909 136.5,171.5C 134.296,172.505 131.296,172.838 127.5,172.5C 127.5,171.5 127.5,170.5 127.5,169.5 Z"/></g>
<g><path style="opacity:1" fill="#9d9d9d" d="M 163.5,169.5 C 164.404,170.209 164.737,171.209 164.5,172.5C 161.287,172.81 158.287,172.477 155.5,171.5C 158.698,172.036 161.365,171.369 163.5,169.5 Z"/></g>
<g><path style="opacity:1" fill="#979797" d="M 195.5,168.5 C 197.104,169.287 197.771,170.62 197.5,172.5C 194.287,172.81 191.287,172.477 188.5,171.5C 191.187,171.664 193.854,171.497 196.5,171C 195.748,170.329 195.414,169.496 195.5,168.5 Z"/></g>
<g><path style="opacity:1" fill="#adadad" d="M 224.5,164.5 C 225.473,166.948 225.806,169.615 225.5,172.5C 217.316,172.826 209.316,172.492 201.5,171.5C 201.833,171.5 202.167,171.5 202.5,171.5C 209.833,171.5 217.167,171.5 224.5,171.5C 224.5,169.167 224.5,166.833 224.5,164.5 Z"/></g>
<g><path style="opacity:1" fill="#1a73bb" d="M 56.5,168.5 C 53.8552,171.058 51.1885,173.724 48.5,176.5C 45.2624,178.275 42.2624,180.275 39.5,182.5C 36.8127,182.664 34.146,182.497 31.5,182C 29.0072,179.92 26.3405,178.086 23.5,176.5C 29.9374,175.755 35.9374,174.088 41.5,171.5C 50.3424,170.49 53.1757,165.823 50,157.5C 49.0754,156.953 48.2421,156.287 47.5,155.5C 49.7379,154.147 51.0713,152.147 51.5,149.5C 50.1854,148.105 50.5188,147.105 52.5,146.5C 53.6047,148.969 55.438,150.636 58,151.5C 58.7912,157.296 58.2912,162.963 56.5,168.5 Z"/></g>
<g><path style="opacity:1" fill="#3070a5" d="M 56.5,168.5 C 54.2605,173.407 50.9271,177.407 46.5,180.5C 44.2543,181.455 41.921,182.122 39.5,182.5C 42.2624,180.275 45.2624,178.275 48.5,176.5C 51.1885,173.724 53.8552,171.058 56.5,168.5 Z"/></g>
</svg>
